<?xml version="1.0" encoding="utf-8"?>
<!-- Generator: Adobe Illustrator 28.3.0, SVG Export Plug-In . SVG Version: 6.00 Build 0)  -->
<svg version="1.1" id="Layer_1" xmlns="http://www.w3.org/2000/svg" xmlns:xlink="http://www.w3.org/1999/xlink" x="0px" y="0px"
	 viewBox="0 0 100 100" style="enable-background:new 0 0 100 100;" xml:space="preserve">
<style type="text/css">
	.st0{fill:#FFFFFF;}
	.st1{opacity:0.64;fill:#FF0000;}
	.st2{opacity:0.64;}
	.st3{fill:#FF0000;}
	.st4{fill:#FFFFFF;stroke:#FFFFFF;stroke-width:3;stroke-miterlimit:10;}
</style>
<g>
	<path class="st0" d="M62.99,71.27H46.61c0.73-1.06,1.21-1.76,1.7-2.47c0.7-1.01,1.76-1.93,2.04-3.04
		c3.17-12.72,6.17-25.48,9.34-38.2c0.55-2.21,0.48-3.91-1.5-5.26c-0.31-0.21-0.51-0.6-0.91-1.08c0.54-0.14,0.89-0.32,1.24-0.32
		c8.04,0.08,16.08,0.1,24.12,0.35c2.05,0.07,4.19,0.65,6.11,1.43c7.02,2.85,9.33,10.2,5.19,16.68c-4.41,6.89-11.27,9.47-19.07,9.98
		c-3.32,0.22-6.66,0.13-9.99,0.06c-1.37-0.03-1.99,0.36-2.29,1.79c-1.01,4.67-2.08,9.32-3.36,13.92c-0.57,2.04-0.32,3.4,1.6,4.4
		C61.44,69.85,61.95,70.42,62.99,71.27z M63.43,47.97c2.99,0,5.44-0.16,7.86,0.03c9.98,0.77,17.23-9.75,15.76-18.55
		c-0.64-3.82-3.25-6.47-7.15-6.82c-2.74-0.24-5.52-0.08-8.28-0.24c-1.58-0.09-2.29,0.42-2.63,2.02c-1.23,5.61-2.62,11.19-3.95,16.78
		C64.52,43.37,64.01,45.55,63.43,47.97L63.43,47.97z"/>
	<g>
		<g>
			<path class="st0" d="M4.02,48c1.14-0.04,2.28-0.07,3.42-0.12c3.42-0.13,6.85-0.27,10.25-0.72c2.04-0.27,4.05-0.66,5.98-1.43
				c3-1.21,4.83-3.45,5.79-6.49c0.65-2.05,1.03-4.15,1.18-6.28c0.27-3.92,0.44-7.84,0.66-11.76c0.01-0.17,0.02-0.35,0.03-0.52
				c0.04,0,0.08,0,0.11,0c0,0.22-0.01,0.43,0,0.65c0.12,4.14,0.25,8.27,0.73,12.39c0.25,2.19,0.64,4.35,1.43,6.42
				c1.12,2.91,3.18,4.81,6.1,5.83c2.18,0.76,4.44,1.18,6.73,1.34c3.93,0.27,7.87,0.44,11.8,0.66c0.16,0.01,0.33,0.02,0.5,0.1
				c-0.15,0.01-0.29,0.03-0.44,0.04c-3.45,0.17-6.9,0.28-10.34,0.51c-2.7,0.18-5.37,0.55-7.96,1.39c-3.44,1.12-5.64,3.41-6.7,6.84
				c-0.64,2.05-1.03,4.15-1.17,6.28c-0.27,3.92-0.44,7.84-0.65,11.76c-0.01,0.17-0.02,0.33-0.11,0.51
				c-0.01-0.17-0.02-0.34-0.03-0.51c-0.17-3.45-0.29-6.9-0.51-10.34c-0.16-2.48-0.53-4.95-1.21-7.36c-1.14-4.03-3.79-6.44-7.8-7.48
				c-2.29-0.6-4.63-0.94-6.98-1.09c-3.45-0.22-6.9-0.34-10.34-0.51c-0.14-0.01-0.29-0.02-0.43-0.03C4.02,48.05,4.02,48.03,4.02,48z"
				/>
		</g>
	</g>
</g>
</svg>
