<?xml version="1.0" encoding="utf-8"?>
<!-- Generator: Adobe Illustrator 28.3.0, SVG Export Plug-In . SVG Version: 6.00 Build 0)  -->
<svg version="1.1" id="Layer_1" xmlns="http://www.w3.org/2000/svg" xmlns:xlink="http://www.w3.org/1999/xlink" x="0px" y="0px"
	 viewBox="0 0 100 100" style="enable-background:new 0 0 100 100;" xml:space="preserve">
<style type="text/css">
	.st0{fill:#FFFFFF;}
</style>
<path class="st0" d="M38.7,84.1H16c0.6-1.4,0.9-2.5,1.4-3.5c0.9-1.8,2.4-3.3,2.9-5.2c3.9-15.6,7.6-31.3,11.4-47
	c1-4.2,3.1-8.4-2.6-12.1c1.9-0.2,2.6-0.3,3.3-0.3c9.2,0,18.4-0.2,27.6,0.1c4.2,0.1,8.5,0.7,12.6,1.9c10.8,3.2,14.7,14.1,8.5,23.5
	c-5.5,8.4-13.9,12-23.5,13.1c-4.7,0.5-9.4,0.6-14.1,0.4c-3.1-0.1-4.1,1.1-4.7,3.8c-1.1,5.4-2.4,10.9-3.9,16.2
	c-0.8,2.9-0.5,5,1.9,6.8C37.3,82.4,37.7,83.1,38.7,84.1L38.7,84.1z M48.7,18.2c-2.8,11.6-5.5,23-8.3,34.7c4.5,0,8.4,0.3,12.3-0.1
	c2.5-0.3,5.2-1.3,7.2-2.8c6.9-5.3,10.3-12.6,9.7-21.4c-0.4-6-4.3-10.1-9.8-10.4C56.1,18,52.5,18.1,48.7,18.2L48.7,18.2z"/>
</svg>
