<?xml version="1.0" encoding="utf-8"?>
<!-- Generator: Adobe Illustrator 28.3.0, SVG Export Plug-In . SVG Version: 6.00 Build 0)  -->
<svg version="1.1" id="Layer_1" xmlns="http://www.w3.org/2000/svg" xmlns:xlink="http://www.w3.org/1999/xlink" x="0px" y="0px"
	 viewBox="0 0 100 100" style="enable-background:new 0 0 100 100;" xml:space="preserve">
<style type="text/css">
	.st0{fill:none;stroke:#FFFFFF;stroke-width:5;stroke-linejoin:round;}
</style>
<path class="st0" d="M59.1,35.5c0.5,0.6,1.2,0.9,1.9,0.9h8.4c2.1,0,3.5,0,4.6,0.1c1.1,0.1,1.6,0.2,2,0.4c0.9,0.5,1.6,1.2,2.1,2.1
	c0.2,0.4,0.3,0.9,0.4,2c0.1,1.1,0.1,2.5,0.1,4.6V55c0,2.1,0,3.5-0.1,4.6c-0.1,1.1-0.2,1.6-0.4,2c-0.5,0.9-1.2,1.6-2.1,2.1
	c-0.4,0.2-0.9,0.3-2,0.4c-1.1,0.1-2.5,0.1-4.6,0.1H41.7c-2.1,0-3.5,0-4.6-0.1c-1.1-0.1-1.6-0.2-2-0.4c-0.9-0.5-1.6-1.2-2.1-2.1
	c-0.2-0.4-0.3-0.9-0.4-2c-0.1-1.1-0.1-2.5-0.1-4.6V34.6c0-2.1,0-3.5,0.1-4.6c0.1-1.1,0.2-1.6,0.4-2c0.5-0.9,1.2-1.6,2.1-2.1
	c0.4-0.2,0.9-0.3,2-0.4c1.1-0.1,2.5-0.1,4.6-0.1h4.7c2.1,0,2.7,0,3.3,0.2c0.5,0.1,1,0.4,1.5,0.7c0.5,0.3,0.9,0.8,2.2,2.4L59.1,35.5z
	"/>
<path class="st0" d="M70.1,62.9v5.8c0,3.1,0,4.6-0.6,5.7c-0.5,1-1.4,1.9-2.4,2.4c-1.2,0.6-2.7,0.6-5.7,0.6H27.9
	c-3.1,0-4.6,0-5.7-0.6c-1-0.5-1.9-1.4-2.4-2.4c-0.6-1.2-0.6-2.7-0.6-5.7V42.6c0-3.1,0-4.6,0.6-5.7c0.5-1,1.4-1.9,2.4-2.4
	c1.2-0.6,2.7-0.6,5.7-0.6h5.8"/>
</svg>
